<mxfile host="app.diagrams.net" modified="2022-07-19T06:25:05.134Z" agent="5.0 (Windows NT 6.1; Win64; x64) AppleWebKit/537.36 (KHTML, like Gecko) Chrome/102.0.0.0 Safari/537.36" etag="mQNMR22kCfBzwAGV5jRu" version="17.5.0" type="github">
  <diagram id="eeHc00onXk_6_axVfq1E" name="Page-1">
    <mxGraphModel dx="1102" dy="614" grid="1" gridSize="10" guides="1" tooltips="1" connect="1" arrows="1" fold="1" page="1" pageScale="1" pageWidth="1169" pageHeight="827" math="0" shadow="0">
      <root>
        <mxCell id="0" />
        <mxCell id="1" parent="0" />
        <mxCell id="JeqD6YOxb1yY-aTv0xNF-3" value="" style="edgeStyle=orthogonalEdgeStyle;rounded=0;orthogonalLoop=1;jettySize=auto;html=1;fontSize=16;" edge="1" parent="1" source="JeqD6YOxb1yY-aTv0xNF-1" target="JeqD6YOxb1yY-aTv0xNF-2">
          <mxGeometry relative="1" as="geometry" />
        </mxCell>
        <mxCell id="JeqD6YOxb1yY-aTv0xNF-1" value="概念阶段" style="rounded=1;whiteSpace=wrap;html=1;fontSize=16;" vertex="1" parent="1">
          <mxGeometry x="120" y="340" width="120" height="60" as="geometry" />
        </mxCell>
        <mxCell id="JeqD6YOxb1yY-aTv0xNF-5" value="" style="edgeStyle=orthogonalEdgeStyle;rounded=0;orthogonalLoop=1;jettySize=auto;html=1;fontSize=16;" edge="1" parent="1" source="JeqD6YOxb1yY-aTv0xNF-2" target="JeqD6YOxb1yY-aTv0xNF-4">
          <mxGeometry relative="1" as="geometry" />
        </mxCell>
        <mxCell id="JeqD6YOxb1yY-aTv0xNF-2" value="计划阶段" style="whiteSpace=wrap;html=1;rounded=1;fontSize=16;" vertex="1" parent="1">
          <mxGeometry x="280" y="340" width="120" height="60" as="geometry" />
        </mxCell>
        <mxCell id="JeqD6YOxb1yY-aTv0xNF-7" value="" style="edgeStyle=orthogonalEdgeStyle;rounded=0;orthogonalLoop=1;jettySize=auto;html=1;fontSize=16;" edge="1" parent="1" source="JeqD6YOxb1yY-aTv0xNF-4" target="JeqD6YOxb1yY-aTv0xNF-6">
          <mxGeometry relative="1" as="geometry" />
        </mxCell>
        <mxCell id="JeqD6YOxb1yY-aTv0xNF-4" value="开发阶段" style="whiteSpace=wrap;html=1;rounded=1;fontSize=16;" vertex="1" parent="1">
          <mxGeometry x="440" y="340" width="120" height="60" as="geometry" />
        </mxCell>
        <mxCell id="JeqD6YOxb1yY-aTv0xNF-9" value="" style="edgeStyle=orthogonalEdgeStyle;rounded=0;orthogonalLoop=1;jettySize=auto;html=1;fontSize=16;" edge="1" parent="1" source="JeqD6YOxb1yY-aTv0xNF-6" target="JeqD6YOxb1yY-aTv0xNF-8">
          <mxGeometry relative="1" as="geometry" />
        </mxCell>
        <mxCell id="JeqD6YOxb1yY-aTv0xNF-6" value="验证阶段" style="whiteSpace=wrap;html=1;rounded=1;fontSize=16;" vertex="1" parent="1">
          <mxGeometry x="600" y="340" width="120" height="60" as="geometry" />
        </mxCell>
        <mxCell id="JeqD6YOxb1yY-aTv0xNF-11" value="" style="edgeStyle=orthogonalEdgeStyle;rounded=0;orthogonalLoop=1;jettySize=auto;html=1;fontSize=16;" edge="1" parent="1" source="JeqD6YOxb1yY-aTv0xNF-8" target="JeqD6YOxb1yY-aTv0xNF-10">
          <mxGeometry relative="1" as="geometry" />
        </mxCell>
        <mxCell id="JeqD6YOxb1yY-aTv0xNF-8" value="发布阶段" style="whiteSpace=wrap;html=1;rounded=1;fontSize=16;" vertex="1" parent="1">
          <mxGeometry x="760" y="340" width="120" height="60" as="geometry" />
        </mxCell>
        <mxCell id="JeqD6YOxb1yY-aTv0xNF-10" value="生命周期管理" style="whiteSpace=wrap;html=1;rounded=1;fontSize=16;" vertex="1" parent="1">
          <mxGeometry x="920" y="340" width="120" height="60" as="geometry" />
        </mxCell>
      </root>
    </mxGraphModel>
  </diagram>
</mxfile>
